<svg id="Layer_1" data-name="Layer 1" xmlns="http://www.w3.org/2000/svg" viewBox="0 0 1062.01 189.04"><defs><style>.cls-1{fill:#016938;}.cls-2,.cls-4,.cls-5{fill:#fff;}.cls-3{fill:none;stroke-width:4.43px;}.cls-3,.cls-5{stroke:#fff;stroke-miterlimit:10;}.cls-4{font-size:161.33px;font-family:Century Gothic;letter-spacing:4px;}.cls-5{stroke-width:1.07px;}</style></defs><title>Banner 1SVG</title><rect class="cls-1" width="735.23" height="163.38"/><path class="cls-1" d="M782,189.5s82.26-1.7,163.38-81.69,161.68-81.69,163.38-81.69H782V189.5Z" transform="translate(-46.77 -26.12)"/><path class="cls-2" d="M119.4,152.4c-0.47-.5,3.24-3.37,14.92-15.84,2.08-2.22,5.58-6,10.51-6.26,1.17-.06,2.61-0.12,3.59.8,2.68,2.53-.35,10.29-4.05,15.11-2.14,2.79-5.07,5.34-5.7,4.88-0.35-.25,0-1.39,2.6-7.23,3.08-7,3.57-7.83,3.24-8.17C142.62,133.74,120.58,153.65,119.4,152.4Z" transform="translate(-46.77 -26.12)"/><path class="cls-2" d="M134.46,105.75c-0.18-.69-0.36-3.21,6.36-12.68,9.93-14,20.78-23.23,20.84-23a63.75,63.75,0,0,0-4.72,4.68c-12.76,14.13-19,32.91-21.83,31.87A1.19,1.19,0,0,1,134.46,105.75Z" transform="translate(-46.77 -26.12)"/><path class="cls-2" d="M131.19,104c-0.29-.65-0.89-3.1,4.14-13.57C142.77,74.93,151.9,64,152,64.2a63.75,63.75,0,0,0-3.87,5.4C137.92,85.68,135,105.24,132,104.7A1.19,1.19,0,0,1,131.19,104Z" transform="translate(-46.77 -26.12)"/><path class="cls-2" d="M102.06,147.31c1.88-16.43,14.45-32.34,21.18-30.47,2.9,0.81,4.12,4.75,4.49,5.95,4.86,15.76-18.81,38.4-24.52,35.47C100.94,157.1,101.53,151.9,102.06,147.31Z" transform="translate(-46.77 -26.12)"/><path class="cls-2" d="M125.23,105.26c1.58-1.25,4.84.1,6.57,1.36,1.92,1.39,2.66,3.28,4.07,7,1.69,4.45,2.67,7.05,1.57,8.14-1.4,1.38-5.66-.19-8.35-2.5C124.31,115.12,122.83,107.17,125.23,105.26Z" transform="translate(-46.77 -26.12)"/><path class="cls-3" d="M141.3,53l27.27,13.13a25.08,25.08,0,0,1,13.57,17l6.73,29.5A25.08,25.08,0,0,1,184,133.9l-18.87,23.66A25.08,25.08,0,0,1,145.55,167H115.29a25.08,25.08,0,0,1-19.61-9.44L76.81,133.9A25.08,25.08,0,0,1,72,112.68l6.73-29.5a25.08,25.08,0,0,1,13.57-17L119.54,53A25.08,25.08,0,0,1,141.3,53Z" transform="translate(-46.77 -26.12)"/><text class="cls-4" transform="translate(154.73 139.57)">mantıs</text><path class="cls-5" d="M126.16,105.68c1.62-.94,4.14,1.09,5.23,2s2,1.61,1.91,2.56a2.63,2.63,0,0,1-2,1.9c-2.66.74-6.49-2.36-6.19-4.77A2.26,2.26,0,0,1,126.16,105.68Z" transform="translate(-46.77 -26.12)"/><path class="cls-2" d="M127.72,98.24" transform="translate(-46.77 -26.12)"/></svg>